<?xml version="1.0" encoding="UTF-8" standalone="no"?>
<!DOCTYPE svg PUBLIC "-//W3C//DTD SVG 1.1//EN" "http://www.w3.org/Graphics/SVG/1.1/DTD/svg11.dtd">
<svg width="100%" height="100%" viewBox="0 0 4911 2620" version="1.1" xmlns="http://www.w3.org/2000/svg" xmlns:xlink="http://www.w3.org/1999/xlink" xml:space="preserve" xmlns:serif="http://www.serif.com/" style="fill-rule:evenodd;clip-rule:evenodd;stroke-linecap:round;stroke-linejoin:round;stroke-miterlimit:1.5;">
    <g transform="matrix(1,0,0,1,-7699,-6046)">
        <g transform="matrix(0.412612,0,0,0.323378,4521.89,6046.6)">
            <rect id="personasKonstr" x="7700" y="0" width="11900" height="8100" style="fill:none;"/>
            <g id="personasKonstr1" serif:id="personasKonstr">
                <g id="persona-1" transform="matrix(1.63111,0,0,2.03391,-4849.81,-113.535)">
                    <g transform="matrix(7.92454,0,0,7.54029,-97100.1,-8983.71)">
                        <rect x="13299" y="1280" width="120" height="155.341" style="fill:rgb(47,34,28);fill-opacity:0;"/>
                    </g>
                    <g transform="matrix(1.48585,0,0,1.5204,7871.11,-5658.94)">
                        <g transform="matrix(1.00273,0,0,1.00273,21.6689,1914.1)">
                            <circle cx="577.586" cy="2689.05" r="315.465" style="fill:rgb(102,148,156);"/>
                        </g>
                        <g transform="matrix(1,0,0,1,0,26.787)">
                            <path d="M471.602,4534.07L741.482,4510.56L713.028,4701.79L494.103,4668.08L471.602,4534.07Z" style="fill:rgb(131,60,31);"/>
                        </g>
                        <g transform="matrix(1,0,0,1,0,1905.79)">
                            <path d="M331.494,2870.57C341.394,2850.57 353.737,2837.71 386.341,2820.46C428.614,2798.1 536.081,2746.14 536.081,2746.14L601.904,2740.4L602.042,2740.3L602.521,2740.35L603,2740.3L603.138,2740.4L668.961,2746.14C668.961,2746.14 776.428,2798.1 818.701,2820.46C849.636,2836.82 862.331,2849.24 872.007,2867.55C816.639,2959.48 715.864,3021.02 600.83,3021.02C487.054,3021.02 387.226,2960.82 331.494,2870.57Z" style="fill:rgb(69,128,134);"/>
                        </g>
                        <g transform="matrix(1,0,0,1,0,1905.79)">
                            <path d="M600.83,2740.49L603.005,2878.9L600.83,3021.02C487.054,3021.02 387.226,2960.82 331.494,2870.57C341.394,2850.57 353.737,2837.71 386.341,2820.46C428.614,2798.1 536.081,2746.14 536.081,2746.14L600.83,2740.49Z" style="fill:rgb(59,110,115);"/>
                        </g>
                        <g transform="matrix(1,0,0,1,0,1905.79)">
                            <path d="M534.239,2726.83L515.801,2755.98L537.283,2872.66L590.243,2828.7L534.239,2726.83Z" style="fill:white;"/>
                        </g>
                        <g transform="matrix(-1,0,0,1,1201.66,1905.79)">
                            <path d="M534.239,2726.83L515.801,2755.98L537.283,2872.66L590.243,2828.7L534.239,2726.83Z" style="fill:white;"/>
                        </g>
                        <g transform="matrix(1,0,0,1,0,1905.79)">
                            <path d="M535.092,2691.56L534.239,2726.83L590.243,2828.7L603,2878.87L611.418,2828.7L667.422,2726.83L667.422,2667.76L535.092,2691.56Z" style="fill:rgb(237,216,181);"/>
                        </g>
                        <g transform="matrix(1,0,0,1,0,1905.79)">
                            <path d="M600.83,2679.73L535.092,2691.56L534.239,2726.83L590.243,2828.7L600.83,2870.34L600.83,2679.73Z" style="fill:rgb(220,196,162);"/>
                        </g>
                        <g transform="matrix(1,0,0,1,0,1905.79)">
                            <path d="M667.422,2708.51L628.644,2736.07C611.99,2747.91 589.67,2747.91 573.017,2736.07L534.675,2708.82L535.092,2691.56L667.422,2667.76L667.422,2708.51Z" style="fill:rgb(188,158,131);"/>
                        </g>
                        <g transform="matrix(1.02034,0,0,1.02034,-12.2194,1857.21)">
                            <path d="M505.251,2674.24C493.948,2664.36 486.161,2651.07 483.063,2636.38C475.484,2600.45 459.694,2525.58 459.694,2525.58L483.898,2422.46C525.117,2391.22 563.745,2382.96 600.83,2388.37L721.104,2412.26L741.967,2525.58L714.634,2655.18C687.835,2680.64 656.649,2700.56 623.269,2719.58C609.405,2727.51 592.457,2727.84 578.297,2720.45C549.379,2705.45 524.242,2690.82 505.251,2674.24Z" style="fill:rgb(237,216,181);"/>
                        </g>
                        <g transform="matrix(1,0,0,1,0,1905.79)">
                            <path d="M600.83,2388.37C600.83,2388.37 600.837,2728.34 600.83,2732.25C591.087,2732.25 577.875,2728.77 569.549,2722.86C549.415,2708.55 487.578,2694.02 479.013,2633.58C473.466,2594.44 456.823,2528.37 456.823,2528.37L481.52,2423.16C523.577,2391.28 562.991,2382.85 600.83,2388.37Z" style="fill:rgb(220,196,162);"/>
                        </g>
                        <g transform="matrix(0.723725,-0.242485,0.216777,0.646997,-432.547,2908.26)">
                            <path d="M479.9,2532.97C490.436,2532.97 493.964,2561.29 500.186,2574.85C505.016,2585.37 513.811,2579.18 513.811,2593.88C513.811,2627.49 498.616,2654.78 479.9,2654.78C461.184,2654.78 445.989,2627.49 445.989,2593.88C445.989,2560.26 461.184,2532.97 479.9,2532.97Z" style="fill:rgb(220,196,162);"/>
                        </g>
                        <g transform="matrix(1,0,0,1,817.733,1905.79)">
                            <g transform="matrix(1.07027,0,0,0.896873,24.5834,269.336)">
                                <ellipse cx="-284.399" cy="2535.84" rx="15.221" ry="20.875" style="fill:rgb(52,34,21);"/>
                            </g>
                            <g transform="matrix(1.07027,0,0,0.896873,150.234,269.336)">
                                <ellipse cx="-284.399" cy="2535.84" rx="15.221" ry="20.875" style="fill:rgb(52,34,21);"/>
                            </g>
                            <g transform="matrix(0.613534,0,0,0.509215,-83.5938,1301.07)">
                                <path d="M-180.261,2639.08C-186.671,2653.17 -200.408,2662.93 -216.303,2662.93C-232.199,2662.93 -245.935,2653.17 -252.345,2639.08L-180.261,2639.08Z" style="fill:white;"/>
                            </g>
                        </g>
                        <path d="M484.606,4545.26C472.963,4497.93 479.801,4442.52 485.525,4413.69C491.249,4384.86 468.19,4385.73 468.19,4385.73C413.665,4436.45 402.141,4463.66 420.519,4463.96C430.162,4464.12 468.818,4434.28 468.959,4445.29C469.401,4479.78 469.902,4519.41 470.078,4535.19C470.416,4565.62 496.249,4592.58 484.606,4545.26Z" style="fill:rgb(131,60,31);"/>
                        <path d="M452.811,4692.65C451.187,4671.61 438.651,4658.16 431.903,4649.87C420.828,4636.26 422.128,4615.54 422.128,4615.54C417.407,4608.4 419.494,4646.24 428.693,4675.3C432.784,4688.22 386.554,4711.66 383.371,4707.92C383.371,4707.92 412.261,4693.98 411.202,4677.9C410.143,4661.82 391.294,4628.05 391.454,4610.63C391.616,4592.99 400.937,4576.66 416.597,4564.99C432.731,4552.98 430.513,4525.54 426.258,4526.07C426.138,4527.74 422.457,4536.56 416.778,4541.55C406.629,4550.46 382.682,4554.9 382.26,4553.51C383.203,4555.02 401.406,4541.46 407.105,4531.05C413.577,4519.24 400.248,4472.97 395.623,4462.65C390.639,4451.54 403.626,4422.03 416.811,4411.14C428.936,4401.12 442.927,4321.34 452.076,4298.69C459.823,4279.5 476.153,4255.61 487.546,4249.72C498.939,4243.84 534.07,4239.15 534.07,4239.15C534.07,4239.15 569.403,4217.04 612.456,4220.24C666.031,4224.23 737.099,4270.25 746.972,4310.93C754.916,4343.67 778.015,4383.39 786.705,4403.46C793.585,4419.35 810.692,4455.3 803.211,4468.16C795.731,4481.02 790.38,4516.49 791.441,4527.69C792.51,4538.97 811.669,4551.95 818.126,4553.01C813.043,4553.38 797.891,4553.96 789.871,4548.54C780.139,4541.95 776.865,4533.81 776.865,4533.81C776.865,4533.81 777.314,4551.53 793.01,4566.37C808.705,4581.21 817.364,4608.22 810.709,4619.77C806.086,4627.8 799.808,4648.75 791.092,4666.1C783.262,4681.69 806.045,4707.26 813.04,4706.43C813.944,4708.98 787.201,4704.69 779.825,4691.72C777.394,4687.44 771.957,4680.53 770.857,4673.28C769.487,4664.24 772.948,4654.53 775.249,4647.09C779.396,4633.68 782.911,4630.26 781.66,4622.38C780.409,4614.5 772.481,4606.48 772.481,4606.48C772.481,4606.48 778.893,4634.11 767.718,4649.6C756.71,4664.85 756.189,4685.45 762.211,4686.33L768.223,4700.59C737.373,4685.23 703.482,4668.69 684.358,4659.4L673.491,4642.21C683.258,4619.28 697.394,4586.61 703.332,4575.44C712.832,4557.58 726.677,4513.4 719.467,4502.62C712.447,4492.14 706.263,4485.79 696.157,4464.61C685.012,4441.25 705.306,4410.74 709.529,4410.28C709.529,4410.28 704.521,4394.05 707.261,4388.01C709.043,4384.08 667.227,4373.99 636.475,4372.17C599.831,4370 542.914,4327.39 548.206,4320.77C532.008,4333.99 518.007,4359.11 496.467,4383.91C496.467,4383.91 502.672,4410.65 492.69,4426.82C482.709,4442.98 469.071,4454.07 469.071,4454.07C448.321,4451.69 447.314,4476.98 474.512,4507.52C491.926,4527.07 486.375,4560.98 492.181,4573.59C499.087,4588.59 514.604,4620.07 526.731,4644.49L515.801,4661.77L515.801,4661.77C499.786,4669.57 476.296,4681.04 452.811,4692.65ZM818.126,4553.01C818.892,4553.13 819.479,4553.09 819.836,4552.86C819.836,4552.86 819.21,4552.93 818.126,4553.01Z" style="fill:rgb(131,60,31);"/>
                        <path d="M722.609,4431.93C727.376,4429.75 732.25,4429.21 736.753,4430.72C750.298,4435.26 755.379,4456.6 748.093,4478.35C746.26,4483.82 743.819,4488.79 740.975,4493.11C739.302,4473.41 730.8,4454.98 722.609,4431.93Z" style="fill:rgb(237,216,181);"/>
                    </g>
                </g>
                <g id="persona-2" transform="matrix(1.63111,0,0,2.03391,-4583.07,-113.535)">
                    <g transform="matrix(7.92454,0,0,7.54029,-96015.5,-8983.71)">
                        <rect x="13299" y="1280" width="120" height="155.341" style="fill:rgb(47,34,28);fill-opacity:0;"/>
                    </g>
                    <g transform="matrix(1.48585,0,0,1.5204,8955.69,-2761.39)">
                        <g transform="matrix(1.00273,0,0,1.00273,21.6689,8.3087)">
                            <circle cx="577.586" cy="2689.05" r="315.465" style="fill:rgb(146,114,40);"/>
                        </g>
                        <path d="M331.494,2870.57C341.394,2850.57 353.737,2837.71 386.341,2820.46C428.614,2798.1 536.081,2746.14 536.081,2746.14L601.904,2740.4L602.042,2740.3L602.521,2740.35L603,2740.3L603.138,2740.4L668.961,2746.14C668.961,2746.14 776.428,2798.1 818.701,2820.46C849.636,2836.82 862.331,2849.24 872.007,2867.55C816.639,2959.48 715.864,3021.02 600.83,3021.02C487.054,3021.02 387.226,2960.82 331.494,2870.57Z" style="fill:rgb(237,182,0);"/>
                        <path d="M600.83,2740.49L603.005,2878.9L600.83,3021.02C487.054,3021.02 387.226,2960.82 331.494,2870.57C341.394,2850.57 353.737,2837.71 386.341,2820.46C428.614,2798.1 536.081,2746.14 536.081,2746.14L600.83,2740.49Z" style="fill:rgb(237,166,0);"/>
                        <path d="M534.239,2726.83L515.801,2755.98L537.283,2872.66L590.243,2828.7L534.239,2726.83Z" style="fill:rgb(218,145,18);"/>
                        <g transform="matrix(-1,0,0,1,1201.66,0)">
                            <path d="M534.239,2726.83L515.801,2755.98L537.283,2872.66L590.243,2828.7L534.239,2726.83Z" style="fill:rgb(255,200,21);"/>
                        </g>
                        <path d="M535.092,2691.56L534.239,2726.83L590.243,2828.7L603,2878.87L611.418,2828.7L667.422,2726.83L667.422,2667.76L535.092,2691.56Z" style="fill:rgb(237,216,181);"/>
                        <path d="M600.83,2679.73L535.092,2691.56L534.239,2726.83L590.243,2828.7L600.83,2870.34L600.83,2679.73Z" style="fill:rgb(220,196,162);"/>
                        <path d="M667.422,2708.51L628.644,2736.07C611.99,2747.91 589.67,2747.91 573.017,2736.07L534.675,2708.82L535.092,2691.56L667.422,2667.76L667.422,2708.51Z" style="fill:rgb(188,158,131);"/>
                        <g transform="matrix(1.02034,0,0,1.02034,-12.2194,-48.5736)">
                            <path d="M509.093,2670.87C494.905,2660.78 485.033,2645.73 481.441,2628.7C473.446,2590.78 459.694,2525.58 459.694,2525.58L483.898,2422.46C525.117,2391.22 563.745,2382.96 600.83,2388.37L721.104,2412.26L741.967,2525.58C741.967,2525.58 726,2601.29 718.473,2636.98C716.004,2648.68 709.22,2659.03 699.469,2665.96C681.367,2678.83 650.744,2700.59 628.412,2716.46C611.897,2728.2 589.763,2728.2 573.249,2716.46C553.553,2702.47 527.409,2683.88 509.093,2670.87Z" style="fill:rgb(237,216,181);"/>
                        </g>
                        <g transform="matrix(0.723725,-0.242485,0.216777,0.646997,-432.547,1002.47)">
                            <ellipse cx="479.9" cy="2593.88" rx="33.911" ry="60.904" style="fill:rgb(220,196,162);"/>
                        </g>
                        <g transform="matrix(-0.723725,-0.242485,-0.216777,0.646997,1633.16,1002.47)">
                            <ellipse cx="479.9" cy="2593.88" rx="33.911" ry="60.904" style="fill:rgb(237,216,181);"/>
                        </g>
                        <path d="M600.83,2388.37C600.83,2388.37 600.837,2728.34 600.83,2732.25C591.087,2732.25 581.344,2729.29 573.017,2723.37C552.884,2709.06 526.018,2689.97 507.227,2676.61C492.75,2666.32 482.678,2650.96 479.013,2633.58C470.855,2594.9 456.823,2528.37 456.823,2528.37L481.52,2423.16C523.577,2391.28 562.991,2382.85 600.83,2388.37Z" style="fill:rgb(220,196,162);"/>
                        <path d="M468.652,2584.45C468.652,2584.45 456.425,2541.24 452.87,2505.65C448.578,2462.66 448.419,2419.45 466.392,2393.94C484.364,2368.43 504.932,2368.31 504.932,2368.31C504.932,2368.31 516.757,2344.52 568.903,2338.57C617.609,2333.02 626.941,2335.21 654.994,2342.24C689.267,2350.82 723.028,2367.44 732.987,2388.37C743.202,2409.83 755.666,2464.41 751.42,2508.28C747.174,2552.15 734.077,2579.39 734.077,2579.39L716.097,2590.1C716.097,2590.1 743.243,2541.92 733.337,2502.79C723.431,2463.65 710.734,2439 695.681,2426.88C680.627,2414.76 676.547,2400.15 648.639,2413.87C620.73,2427.58 617.114,2439.18 600.83,2439.18C584.547,2439.18 574.37,2431.89 556.614,2421.76C538.858,2411.62 523.073,2403.53 510.445,2418.31C483.673,2449.64 467.505,2502.04 470.027,2531.75C472.548,2561.46 484.439,2594.56 484.439,2594.56L468.652,2584.45Z" style="fill:rgb(103,76,61);"/>
                        <g transform="matrix(1,0,0,1,817.733,0)">
                            <g transform="matrix(1.07027,0,0,0.896873,18.9141,263.667)">
                                <ellipse cx="-284.399" cy="2535.84" rx="15.221" ry="20.875" style="fill:rgb(52,34,21);"/>
                            </g>
                            <g transform="matrix(1.07027,0,0,0.896873,155.903,263.667)">
                                <ellipse cx="-284.399" cy="2535.84" rx="15.221" ry="20.875" style="fill:rgb(52,34,21);"/>
                            </g>
                            <path d="M-180.261,2639.08C-186.671,2653.17 -200.408,2662.93 -216.303,2662.93C-232.199,2662.93 -245.935,2653.17 -252.345,2639.08L-180.261,2639.08Z" style="fill:white;"/>
                        </g>
                        <g transform="matrix(1,0,0,1,-7.6482,18.1421)">
                            <rect x="693.508" y="2920.25" width="96.824" height="19.516" style="fill:rgb(218,145,18);"/>
                        </g>
                    </g>
                </g>
                <g id="persona-3" transform="matrix(1.63111,0,0,2.03391,-4324.2,-113.535)">
                    <g transform="matrix(7.92454,0,0,7.54029,-94926.1,-8985.01)">
                        <rect x="13299" y="1280" width="120" height="155.341" style="fill:rgb(47,34,28);fill-opacity:0;"/>
                    </g>
                    <g transform="matrix(1.48585,0,0,1.5204,7729.4,-8969.64)">
                        <g transform="matrix(1,0,0,1,1558.5,4083.31)">
                            <g transform="matrix(1.00273,0,0,1.00273,21.6689,8.3087)">
                                <circle cx="577.586" cy="2689.05" r="315.465" style="fill:rgb(171,125,108);"/>
                            </g>
                            <path d="M331.494,2870.57C341.394,2850.57 353.737,2837.71 386.341,2820.46C428.614,2798.1 536.081,2746.14 536.081,2746.14L601.904,2740.4L602.042,2740.3L602.521,2740.35L603,2740.3L603.138,2740.4L668.961,2746.14C668.961,2746.14 776.428,2798.1 818.701,2820.46C849.636,2836.82 862.331,2849.24 872.007,2867.55C816.639,2959.48 715.864,3021.02 600.83,3021.02C487.054,3021.02 387.226,2960.82 331.494,2870.57Z" style="fill:rgb(155,112,75);"/>
                            <path d="M600.83,2740.49L603.005,2878.9L600.83,3021.02C487.054,3021.02 387.226,2960.82 331.494,2870.57C341.394,2850.57 353.737,2837.71 386.341,2820.46C428.614,2798.1 536.081,2746.14 536.081,2746.14L600.83,2740.49Z" style="fill:rgb(134,96,65);"/>
                            <path d="M534.239,2726.83L515.801,2755.98L548.622,2872.66L602.226,2829.32L534.239,2726.83Z" style="fill:white;"/>
                            <g transform="matrix(-1,0,0,1,1201.66,0)">
                                <path d="M534.239,2726.83L515.801,2755.98L548.622,2872.66L599.425,2829.32L534.239,2726.83Z" style="fill:white;"/>
                            </g>
                            <path d="M535.092,2691.56L534.239,2726.83L602.226,2829.32L667.422,2726.83L667.422,2667.76L535.092,2691.56Z" style="fill:rgb(237,216,181);"/>
                            <path d="M600.83,2679.73L535.092,2691.56L534.239,2726.83L602.226,2829.32L600.83,2679.73Z" style="fill:rgb(220,196,162);"/>
                            <path d="M667.422,2708.51L628.644,2736.07C611.99,2747.91 589.67,2747.91 573.017,2736.07L534.675,2708.82L535.092,2691.56L667.422,2667.76L667.422,2708.51Z" style="fill:rgb(188,158,131);"/>
                            <g transform="matrix(1.02034,0,0,1.02034,-12.2194,-48.5736)">
                                <path d="M509.093,2670.87C494.905,2660.78 485.033,2645.73 481.441,2628.7C473.446,2590.78 459.694,2525.58 459.694,2525.58L483.898,2422.46C525.117,2391.22 563.745,2382.96 600.83,2388.37L721.104,2412.26L741.967,2525.58C741.967,2525.58 725.762,2602.41 718.307,2637.76C715.945,2648.97 709.453,2658.87 700.123,2665.5C681.875,2678.47 650.191,2700.99 627.52,2717.1C611.539,2728.46 590.122,2728.46 574.141,2717.1C554.349,2703.03 527.687,2684.08 509.093,2670.87Z" style="fill:rgb(237,216,181);"/>
                            </g>
                            <g transform="matrix(0.723725,-0.242485,0.216777,0.646997,-432.547,1002.47)">
                                <ellipse cx="479.9" cy="2593.88" rx="33.911" ry="60.904" style="fill:rgb(220,196,162);"/>
                            </g>
                            <g transform="matrix(-0.723725,-0.242485,-0.216777,0.646997,1633.16,1002.47)">
                                <ellipse cx="479.9" cy="2593.88" rx="33.911" ry="60.904" style="fill:rgb(237,216,181);"/>
                            </g>
                            <path d="M600.83,2388.37C600.83,2388.37 600.837,2728.34 600.83,2732.25C591.087,2732.25 581.344,2729.29 573.017,2723.37C552.884,2709.06 526.018,2689.97 507.227,2676.61C492.75,2666.32 482.678,2650.96 479.013,2633.58C470.855,2594.9 456.823,2528.37 456.823,2528.37L481.52,2423.16C523.577,2391.28 562.991,2382.85 600.83,2388.37Z" style="fill:rgb(220,196,162);"/>
                            <path d="M468.652,2584.45C468.652,2584.45 456.425,2541.24 452.87,2505.65C448.578,2462.66 448.419,2419.45 466.392,2393.94C484.364,2368.43 504.932,2368.31 504.932,2368.31C504.932,2368.31 516.757,2344.52 568.903,2338.57C617.609,2333.02 626.941,2335.21 654.994,2342.24C689.267,2350.82 723.028,2367.44 732.987,2388.37C743.202,2409.83 755.666,2464.41 751.42,2508.28C747.174,2552.15 734.077,2579.39 734.077,2579.39L716.097,2590.1C716.097,2590.1 743.243,2541.92 733.337,2502.79C723.431,2463.65 710.734,2439 695.681,2426.88C680.627,2414.76 676.547,2400.15 648.639,2413.87C620.73,2427.58 617.114,2439.18 600.83,2439.18C584.547,2439.18 574.37,2431.89 556.614,2421.76C538.858,2411.62 523.073,2403.53 510.445,2418.31C483.673,2449.64 467.505,2502.04 470.027,2531.75C472.548,2561.46 484.439,2594.56 484.439,2594.56L468.652,2584.45Z" style="fill:rgb(70,51,41);"/>
                            <g transform="matrix(1,0,0,1,817.733,0)">
                                <g transform="matrix(1.07027,0,0,0.896873,18.9141,263.667)">
                                    <ellipse cx="-284.399" cy="2535.84" rx="15.221" ry="20.875" style="fill:rgb(52,34,21);"/>
                                </g>
                                <g transform="matrix(1.07027,0,0,0.896873,155.903,263.667)">
                                    <ellipse cx="-284.399" cy="2535.84" rx="15.221" ry="20.875" style="fill:rgb(52,34,21);"/>
                                </g>
                            </g>
                            <g transform="matrix(1,0,0,1,0,-2825.69)">
                                <path d="M482.265,5413.43C482.265,5413.43 515.93,5432.07 537.879,5444.23C550.023,5450.96 563.628,5454.61 577.507,5454.87C588.945,5455.09 600.758,5455.31 600.758,5455.31C600.758,5455.31 619.771,5454.87 633.012,5454.57C641.191,5454.38 649.165,5451.97 656.08,5447.59C676.714,5434.54 720.367,5406.92 720.367,5406.92L734.077,5405.07C734.077,5405.07 721.092,5466.49 714.368,5498.29C711.819,5510.35 704.427,5520.83 693.924,5527.28C668.567,5542.81 620.964,5570.31 601.75,5570.31C582.317,5570.31 532.427,5540.56 506.523,5524.24C496.236,5517.75 489.023,5507.36 486.537,5495.45C480.298,5465.58 468.652,5409.81 468.652,5409.81L482.265,5413.43Z" style="fill:rgb(70,51,41);"/>
                            </g>
                            <g transform="matrix(0.701137,0,0,0.701137,753.088,795.852)">
                                <path d="M-186.174,2638.21C-184.765,2638.41 -183.558,2639.32 -182.97,2640.62C-182.381,2641.91 -182.491,2643.42 -183.262,2644.62C-190.467,2655.66 -202.581,2662.93 -216.303,2662.93C-230.028,2662.93 -242.143,2655.66 -249.322,2644.59C-250.087,2643.41 -250.196,2641.91 -249.613,2640.63C-249.029,2639.34 -247.832,2638.44 -246.434,2638.23C-239.669,2637.21 -228.655,2635.59 -222.01,2634.61C-218.287,2634.06 -214.504,2634.06 -210.781,2634.61C-204.097,2635.58 -192.986,2637.21 -186.174,2638.21Z" style="fill:white;"/>
                            </g>
                            <g transform="matrix(1,0,0,1,-7.6482,18.1421)">
                                <rect x="693.508" y="2920.25" width="96.824" height="19.516" style="fill:rgb(134,96,65);"/>
                            </g>
                        </g>
                        <g transform="matrix(1.45766,-0.532545,0.391857,1.07258,-721.727,1170.65)">
                            <ellipse cx="553.321" cy="5178.86" rx="24.493" ry="22.048" style="fill:rgb(70,51,41);"/>
                        </g>
                        <g transform="matrix(1,0,0,1,1524.14,1261.93)">
                            <ellipse cx="553.321" cy="5178.86" rx="24.493" ry="22.048" style="fill:rgb(70,51,41);"/>
                        </g>
                        <g transform="matrix(0.159639,-1.18565,1.64807,0.221901,-6349.81,5978.95)">
                            <ellipse cx="553.321" cy="5178.86" rx="24.493" ry="22.048" style="fill:rgb(70,51,41);"/>
                        </g>
                        <g transform="matrix(0.196578,-1.45999,0.865187,0.116492,-2277.33,6775.64)">
                            <ellipse cx="553.321" cy="5178.86" rx="24.493" ry="22.048" style="fill:rgb(70,51,41);"/>
                        </g>
                        <g transform="matrix(1,0,0,1,1461.11,1344.33)">
                            <ellipse cx="553.321" cy="5178.86" rx="24.493" ry="22.048" style="fill:rgb(70,51,41);"/>
                        </g>
                        <g transform="matrix(1.40183,0.557073,-0.3693,0.92931,3360.79,1307.31)">
                            <ellipse cx="553.321" cy="5178.86" rx="24.493" ry="22.048" style="fill:rgb(70,51,41);"/>
                        </g>
                        <g transform="matrix(1.36097,1.56715,-0.755028,0.655692,5425.18,2204.46)">
                            <ellipse cx="553.321" cy="5178.86" rx="24.493" ry="22.048" style="fill:rgb(70,51,41);"/>
                        </g>
                        <g transform="matrix(2.10882,0,0,1.41867,999,-916.395)">
                            <ellipse cx="553.321" cy="5178.86" rx="24.493" ry="22.048" style="fill:rgb(70,51,41);"/>
                        </g>
                        <g transform="matrix(0.994408,0.524354,-0.673853,1.27792,4988.69,-445.925)">
                            <ellipse cx="553.321" cy="5178.86" rx="24.493" ry="22.048" style="fill:rgb(70,51,41);"/>
                        </g>
                        <g transform="matrix(1.00468,0.529772,-0.683413,1.29606,5003.29,-511.853)">
                            <ellipse cx="553.321" cy="5178.86" rx="24.493" ry="22.048" style="fill:rgb(70,51,41);"/>
                        </g>
                        <g transform="matrix(0.950713,-0.0834183,0.128069,1.45959,1110.46,-989.683)">
                            <ellipse cx="553.321" cy="5178.86" rx="24.493" ry="22.048" style="fill:rgb(70,51,41);"/>
                        </g>
                        <g transform="matrix(0.906506,0.00798015,-0.0209086,2.37511,1619.95,-5746.69)">
                            <ellipse cx="553.321" cy="5178.86" rx="24.493" ry="22.048" style="fill:rgb(70,51,41);"/>
                        </g>
                        <path d="M2129.4,7102.93L2149.64,6950.62L2136.53,6932.19L2160.72,6912.64L2160.72,6912.63L2160.73,6912.64L2160.74,6912.63L2160.74,6912.64L2184.53,6932.93L2171.82,6950.62L2192.03,7102.66C2181.27,7103.76 2170.36,7104.33 2159.33,7104.33C2149.24,7104.33 2139.26,7103.86 2129.4,7102.93Z" style="fill:rgb(218,89,89);"/>
                    </g>
                </g>
                <g id="persona-4" transform="matrix(1.63111,0,0,2.03391,-4065.33,-113.535)">
                    <g transform="matrix(7.92454,0,0,7.54029,-93836.7,-8986.3)">
                        <rect x="13299" y="1280" width="120" height="155.341" style="fill:rgb(47,34,28);fill-opacity:0;"/>
                    </g>
                    <g transform="matrix(1.48585,0,0,1.5204,11134.5,-10268.8)">
                        <g transform="matrix(1.00273,0,0,1.00273,21.6689,4946.1)">
                            <circle cx="577.586" cy="2689.05" r="315.465" style="fill:rgb(217,136,124);"/>
                        </g>
                        <g transform="matrix(1.6539,0,0,1.6539,-1400.86,-4957.59)">
                            <path d="M1250.69,7381.43C1277.34,7379.79 1292.13,7396.02 1304.67,7423.98C1318.08,7453.86 1326.22,7489.11 1326.22,7527.01C1326.22,7622.58 1275.96,7696.26 1210.28,7710.84C1144.61,7696.26 1094.35,7622.58 1094.35,7527.01C1094.35,7496.23 1100.81,7462.82 1112.48,7438.03C1139.03,7381.63 1218.16,7343.32 1250.69,7381.43Z" style="fill:rgb(70,51,41);"/>
                        </g>
                        <g transform="matrix(-0.723725,-0.242485,-0.216777,0.646997,1657.11,5923.26)">
                            <path d="M479.9,2532.97C490.436,2532.97 493.964,2561.29 500.186,2574.85C505.016,2585.37 513.811,2579.18 513.811,2593.88C513.811,2627.49 498.616,2654.78 479.9,2654.78C461.184,2654.78 445.989,2627.49 445.989,2593.88C445.989,2560.26 461.184,2532.97 479.9,2532.97Z" style="fill:rgb(237,216,181);"/>
                        </g>
                        <g transform="matrix(1,0,0,1,-2.27374e-13,4937.79)">
                            <path d="M331.494,2870.57C341.394,2850.57 353.737,2837.71 386.341,2820.46C428.614,2798.1 536.081,2746.14 536.081,2746.14L601.904,2740.4L602.042,2740.3L602.521,2740.35L603,2740.3L603.138,2740.4L667.366,2747.27C667.366,2747.27 776.428,2798.1 818.701,2820.46C849.636,2836.82 862.331,2849.24 872.007,2867.55C816.639,2959.48 715.864,3021.02 600.83,3021.02C487.054,3021.02 387.226,2960.82 331.494,2870.57Z" style="fill:rgb(200,56,58);"/>
                        </g>
                        <g transform="matrix(1,0,0,1,-2.27374e-13,4937.79)">
                            <path d="M600.83,2740.49L603.005,2878.9L600.83,3021.02C487.054,3021.02 387.226,2960.82 331.494,2870.57C341.394,2850.57 353.737,2837.71 386.341,2820.46C428.614,2798.1 536.081,2746.14 536.081,2746.14L600.83,2740.49Z" style="fill:rgb(174,48,50);"/>
                        </g>
                        <g transform="matrix(1,0,0,1,-2.27374e-13,4937.79)">
                            <path d="M535.092,2691.56L533.744,2747.27C553.301,2784.96 571.941,2812.93 589.499,2829.44C598.085,2834.53 605.432,2834.45 611.418,2828.7C632.649,2809.16 657.814,2779.59 667.422,2747.3L667.422,2667.76L535.092,2691.56Z" style="fill:rgb(237,216,181);"/>
                        </g>
                        <g transform="matrix(1,0,0,1,-2.27374e-13,4937.79)">
                            <path d="M600.83,2679.73L535.092,2691.56L533.746,2747.27C556.136,2794.38 588.015,2837.21 600.83,2833.14L600.83,2679.73Z" style="fill:rgb(220,196,162);"/>
                        </g>
                        <g transform="matrix(1,0,0,1,-2.27374e-13,4937.79)">
                            <path d="M667.422,2708.51L628.644,2736.07C611.99,2747.91 589.67,2747.91 573.017,2736.07L534.675,2708.82L535.092,2691.56L667.422,2667.76L667.422,2708.51Z" style="fill:rgb(188,158,131);"/>
                        </g>
                        <g transform="matrix(1.02034,0,0,1.02034,-12.2194,4889.22)">
                            <path d="M473.37,2581.34L459.694,2525.58L483.898,2422.46C525.117,2391.22 563.745,2340.02 600.83,2345.43L679.875,2358.07L721.104,2412.26L741.967,2525.58L737.574,2583.62C711.205,2654.62 664.577,2693.35 625.635,2717.67C610.158,2727.39 590.445,2727.22 575.139,2717.23C537.065,2692.52 504.645,2655.17 473.37,2581.34Z" style="fill:rgb(237,216,181);"/>
                        </g>
                        <g transform="matrix(1,0,0,1,0,-2.2651)">
                            <path d="M498.775,7349.07C534.418,7327.01 568.209,7321.4 600.83,7326.16C600.83,7326.16 600.837,7666.14 600.83,7670.04C600.552,7670.62 600.267,7671.18 599.973,7671.74C591.133,7671.6 582.327,7669.01 574.617,7663.99C535.768,7638.77 502.689,7600.66 470.778,7525.33L456.823,7468.43L481.52,7363.22C487.319,7358.82 493.069,7354.04 498.775,7349.07Z" style="fill:rgb(220,196,162);"/>
                        </g>
                        <g transform="matrix(0.723725,-0.242485,0.216777,0.646997,-455.224,5923.26)">
                            <path d="M479.9,2532.97C490.436,2532.97 493.964,2561.29 500.186,2574.85C505.016,2585.37 513.811,2579.18 513.811,2593.88C513.811,2627.49 498.616,2654.78 479.9,2654.78C461.184,2654.78 445.989,2627.49 445.989,2593.88C445.989,2560.26 461.184,2532.97 479.9,2532.97Z" style="fill:rgb(220,196,162);"/>
                        </g>
                        <g transform="matrix(1,0,0,1,817.733,4937.79)">
                            <g transform="matrix(1.07027,0,0,0.896873,24.5834,269.336)">
                                <ellipse cx="-284.399" cy="2535.84" rx="15.221" ry="20.875" style="fill:rgb(52,34,21);"/>
                            </g>
                            <g transform="matrix(1.07027,0,0,0.896873,150.234,269.336)">
                                <ellipse cx="-284.399" cy="2535.84" rx="15.221" ry="20.875" style="fill:rgb(52,34,21);"/>
                            </g>
                            <g transform="matrix(0.613534,0,0,0.509215,-83.5938,1301.07)">
                                <path d="M-180.261,2639.08C-186.671,2653.17 -200.408,2662.93 -216.303,2662.93C-232.199,2662.93 -245.935,2653.17 -252.345,2639.08L-180.261,2639.08Z" style="fill:white;"/>
                            </g>
                        </g>
                        <g transform="matrix(1.6539,0,0,1.6539,-1400.86,-4957.59)">
                            <path d="M1230.69,7409.27C1230.69,7409.27 1192.9,7439.77 1178.74,7457.71C1163.34,7477.24 1110.15,7524.45 1109.32,7521.32L1108.74,7487.49L1169.68,7400.71L1255.54,7393.51L1310.68,7474.94L1304.73,7519.59C1289.42,7497.06 1276.34,7470.85 1271.06,7431.77C1261.74,7443.46 1242.66,7472.75 1201.3,7494.74C1174.32,7509.09 1148.15,7518.84 1139.48,7514.13C1139.48,7514.13 1169.12,7489 1190.37,7465.24C1211.62,7441.48 1230.69,7409.27 1230.69,7409.27Z" style="fill:rgb(70,51,41);"/>
                        </g>
                        <path d="M572.603,7957.56C562.395,7832.34 546.9,7775.45 533.746,7685.07C547.179,7717.29 571.208,7751.8 600.023,7752.24C628.851,7751.8 653.932,7717.29 667.366,7685.07C654.207,7775.48 637.813,7832.37 627.453,7957.7C618.691,7958.43 609.804,7958.81 600.83,7958.81C591.316,7958.81 581.898,7958.39 572.603,7957.56Z" style="fill:rgb(106,70,49);"/>
                    </g>
                </g>
                <g id="persona-5" transform="matrix(1.63111,0,0,2.03391,-3806.47,-113.535)">
                    <g transform="matrix(7.92454,0,0,7.54029,-92747.3,-8987.59)">
                        <rect x="13299" y="1280" width="120" height="155.341" style="fill:rgb(47,34,28);fill-opacity:0;"/>
                    </g>
                    <g transform="matrix(1.48585,0,0,1.5204,12220.1,-2761.39)">
                        <g transform="matrix(1.00273,0,0,1.00273,21.6689,8.3087)">
                            <circle cx="577.586" cy="2689.05" r="315.465" style="fill:rgb(72,107,164);"/>
                        </g>
                        <path d="M535.092,2691.56L534.239,2726.83L590.243,2828.7L603,2878.87L611.418,2828.7L667.422,2726.83L667.422,2667.76L535.092,2691.56Z" style="fill:rgb(237,216,181);"/>
                        <path d="M600.83,2679.73L535.092,2691.56L534.239,2726.83L590.243,2828.7L600.83,2870.34L600.83,2679.73Z" style="fill:rgb(220,196,162);"/>
                        <g transform="matrix(1,0,0,1,-815.846,-4908.47)">
                            <path d="M1119.34,7721.28C1126.63,7715.72 1135.69,7710.11 1147.34,7703.95C1186.97,7682.99 1332.14,7637.94 1350.1,7632.39C1363.58,7664.45 1387.5,7681.56 1416.14,7681.99C1444.97,7681.56 1470.05,7664.05 1483.49,7631.83C1486.03,7633.42 1669.88,7697.38 1705.47,7716.2C1708.53,7717.82 1711.41,7719.4 1714.13,7720.96C1670,7842.54 1553.41,7929.49 1416.68,7929.49C1407.35,7929.49 1398.12,7929.08 1389.03,7928.29C1354.4,7924.52 1317.27,7914.09 1281.04,7898.97C1206.41,7863.45 1147.85,7799.56 1119.34,7721.28Z" style="fill:rgb(94,174,199);"/>
                        </g>
                        <path d="M667.422,2708.51L628.644,2736.07C611.99,2747.91 589.67,2747.91 573.017,2736.07L534.675,2708.82L535.092,2691.56L667.422,2667.76L667.422,2708.51Z" style="fill:rgb(188,158,131);"/>
                        <g transform="matrix(1.02034,0,0,1.02034,-12.2194,-48.5736)">
                            <path d="M509.093,2670.87C494.905,2660.78 485.033,2645.73 481.441,2628.7C473.446,2590.78 459.694,2525.58 459.694,2525.58L483.898,2422.46C525.117,2391.22 563.745,2382.96 600.83,2388.37L721.104,2412.26L741.967,2525.58C741.967,2525.58 726,2601.29 718.473,2636.98C716.004,2648.68 709.22,2659.03 699.469,2665.96C681.367,2678.83 650.744,2700.59 628.412,2716.46C611.897,2728.2 589.763,2728.2 573.249,2716.46C553.553,2702.47 527.409,2683.88 509.093,2670.87Z" style="fill:rgb(237,216,181);"/>
                        </g>
                        <g transform="matrix(0.723725,-0.242485,0.216777,0.646997,-432.547,1002.47)">
                            <ellipse cx="479.9" cy="2593.88" rx="33.911" ry="60.904" style="fill:rgb(220,196,162);"/>
                        </g>
                        <g transform="matrix(-0.723725,-0.242485,-0.216777,0.646997,1633.16,1002.47)">
                            <ellipse cx="479.9" cy="2593.88" rx="33.911" ry="60.904" style="fill:rgb(237,216,181);"/>
                        </g>
                        <path d="M600.83,2388.37C600.83,2388.37 600.837,2728.34 600.83,2732.25C591.087,2732.25 581.344,2729.29 573.017,2723.37C552.884,2709.06 526.018,2689.97 507.227,2676.61C492.75,2666.32 482.678,2650.96 479.013,2633.58C470.855,2594.9 456.823,2528.37 456.823,2528.37L481.52,2423.16C523.577,2391.28 562.991,2382.85 600.83,2388.37Z" style="fill:rgb(220,196,162);"/>
                        <path d="M468.652,2584.45C468.652,2584.45 456.425,2541.24 452.87,2505.65C448.578,2462.66 447.36,2383.39 456.823,2353.66C462.031,2337.3 510.027,2334.64 510.027,2334.64C510.027,2334.64 518.662,2332.51 570.808,2326.56C619.514,2321.01 639.369,2323.07 667.422,2330.1C701.695,2338.68 734.879,2337.33 744.837,2358.25C755.053,2379.72 755.666,2464.41 751.42,2508.28C747.174,2552.15 734.077,2579.39 734.077,2579.39C734.077,2579.39 723.331,2577.26 728.967,2559.46C734.25,2542.77 738.129,2521.72 733.337,2502.79C723.431,2463.65 716.048,2422.92 675.225,2428.28C644.393,2432.33 583.856,2446.86 567.573,2446.86C551.289,2446.86 515.177,2425.69 502.55,2440.47C475.778,2471.8 467.505,2502.04 470.027,2531.75C470.816,2541.05 472.522,2550.68 474.495,2559.52C478.826,2578.94 468.652,2584.45 468.652,2584.45Z" style="fill:rgb(146,81,45);"/>
                        <g transform="matrix(1,0,0,1,817.733,0)">
                            <g transform="matrix(1.07027,0,0,0.896873,18.9141,263.667)">
                                <ellipse cx="-284.399" cy="2535.84" rx="15.221" ry="20.875" style="fill:rgb(52,34,21);"/>
                            </g>
                            <g transform="matrix(1.07027,0,0,0.896873,155.903,263.667)">
                                <ellipse cx="-284.399" cy="2535.84" rx="15.221" ry="20.875" style="fill:rgb(52,34,21);"/>
                            </g>
                            <path d="M-180.261,2639.08C-186.671,2653.17 -200.408,2662.93 -216.303,2662.93C-232.199,2662.93 -245.935,2653.17 -252.345,2639.08L-180.261,2639.08Z" style="fill:white;"/>
                        </g>
                    </g>
                </g>
                <g id="persona-6" transform="matrix(1.63111,0,0,2.03391,-15507.7,123.275)">
                    <g transform="matrix(7.92454,0,0,7.54029,-89317.9,-7735.66)">
                        <rect x="13299" y="1280" width="120" height="155.341" style="fill:rgb(47,34,28);fill-opacity:0;"/>
                    </g>
                    <g transform="matrix(1.48585,0,0,1.5204,13338.3,-8638.64)">
                        <g transform="matrix(1.00273,0,0,1.00273,1580.17,4696.23)">
                            <circle cx="577.586" cy="2689.05" r="315.465" style="fill:rgb(69,113,69);"/>
                        </g>
                        <g transform="matrix(1,0,0,1,1558.5,4687.92)">
                            <path d="M331.494,2870.57C341.394,2850.57 353.737,2837.71 386.341,2820.46C428.614,2798.1 536.081,2746.14 536.081,2746.14L601.904,2740.4L602.042,2740.3L602.521,2740.35L603,2740.3L603.138,2740.4L668.961,2746.14C668.961,2746.14 776.428,2798.1 818.701,2820.46C849.636,2836.82 862.331,2849.24 872.007,2867.55C816.639,2959.48 715.864,3021.02 600.83,3021.02C487.054,3021.02 387.226,2960.82 331.494,2870.57Z" style="fill:rgb(0,124,110);"/>
                        </g>
                        <g transform="matrix(1,0,0,1,1558.5,4687.92)">
                            <path d="M600.83,2740.49L603.005,2878.9L600.83,3021.02C487.054,3021.02 387.226,2960.82 331.494,2870.57C341.394,2850.57 353.737,2837.71 386.341,2820.46C428.614,2798.1 536.081,2746.14 536.081,2746.14L600.83,2740.49Z" style="fill:rgb(0,86,76);"/>
                        </g>
                        <g transform="matrix(1,0,0,1,1558.5,4687.92)">
                            <path d="M534.239,2726.83L515.801,2755.98L548.622,2872.66L602.226,2829.32L534.239,2726.83Z" style="fill:white;"/>
                        </g>
                        <g transform="matrix(-1,0,0,1,2760.16,4687.92)">
                            <path d="M534.239,2726.83L515.801,2755.98L548.622,2872.66L599.425,2829.32L534.239,2726.83Z" style="fill:white;"/>
                        </g>
                        <g transform="matrix(1,0,0,1,1558.5,4687.92)">
                            <path d="M535.092,2691.56L534.239,2726.83L602.226,2829.32L667.422,2726.83L667.422,2667.76L535.092,2691.56Z" style="fill:rgb(237,216,181);"/>
                        </g>
                        <g transform="matrix(1,0,0,1,1558.5,4687.92)">
                            <path d="M600.83,2679.73L535.092,2691.56L534.239,2726.83L602.226,2829.32L600.83,2679.73Z" style="fill:rgb(220,196,162);"/>
                        </g>
                        <g transform="matrix(1,0,0,1,1558.5,4687.92)">
                            <path d="M667.422,2708.51L628.644,2736.07C611.99,2747.91 589.67,2747.91 573.017,2736.07L534.675,2708.82L535.092,2691.56L667.422,2667.76L667.422,2708.51Z" style="fill:rgb(188,158,131);"/>
                        </g>
                        <g transform="matrix(1.02034,0,0,1.02034,1546.28,4639.34)">
                            <path d="M509.093,2670.87C494.905,2660.78 485.033,2645.73 481.441,2628.7C473.446,2590.78 459.694,2525.58 459.694,2525.58L483.898,2422.46C525.117,2391.22 563.745,2382.96 600.83,2388.37L721.104,2412.26L741.967,2525.58C741.967,2525.58 725.762,2602.41 718.307,2637.76C715.945,2648.97 709.453,2658.87 700.123,2665.5C681.875,2678.47 650.191,2700.99 627.52,2717.1C611.539,2728.46 590.122,2728.46 574.141,2717.1C554.349,2703.03 527.687,2684.08 509.093,2670.87Z" style="fill:rgb(237,216,181);"/>
                        </g>
                        <g transform="matrix(0.723725,-0.242485,0.216777,0.646997,1125.95,5690.39)">
                            <ellipse cx="479.9" cy="2593.88" rx="33.911" ry="60.904" style="fill:rgb(220,196,162);"/>
                        </g>
                        <g transform="matrix(-0.723725,-0.242485,-0.216777,0.646997,3191.66,5690.39)">
                            <ellipse cx="479.9" cy="2593.88" rx="33.911" ry="60.904" style="fill:rgb(237,216,181);"/>
                        </g>
                        <g transform="matrix(1,0,0,1,1558.5,4687.92)">
                            <path d="M600.83,2388.37C600.83,2388.37 600.837,2728.34 600.83,2732.25C591.087,2732.25 581.344,2729.29 573.017,2723.37C552.884,2709.06 526.018,2689.97 507.227,2676.61C492.75,2666.32 482.678,2650.96 479.013,2633.58C470.855,2594.9 456.823,2528.37 456.823,2528.37L481.52,2423.16C523.577,2391.28 562.991,2382.85 600.83,2388.37Z" style="fill:rgb(220,196,162);"/>
                        </g>
                        <g transform="matrix(1,0,0,1,1558.5,4687.92)">
                            <path d="M468.652,2584.45C468.652,2584.45 456.425,2541.24 452.87,2505.65C448.578,2462.66 448.419,2419.45 466.392,2393.94C484.364,2368.43 504.932,2368.31 504.932,2368.31C504.932,2368.31 516.757,2344.52 568.903,2338.57C617.609,2333.02 626.941,2335.21 654.994,2342.24C689.267,2350.82 723.028,2367.44 732.987,2388.37C743.202,2409.83 755.666,2464.41 751.42,2508.28C747.174,2552.15 734.077,2579.39 734.077,2579.39L716.097,2590.1C716.097,2590.1 743.243,2541.92 733.337,2502.79C723.431,2463.65 710.734,2439 695.681,2426.88C680.627,2414.76 676.547,2400.15 648.639,2413.87C620.73,2427.58 617.114,2439.18 600.83,2439.18C584.547,2439.18 574.37,2431.89 556.614,2421.76C538.858,2411.62 523.073,2403.53 510.445,2418.31C483.673,2449.64 467.505,2502.04 470.027,2531.75C472.548,2561.46 484.439,2594.56 484.439,2594.56L468.652,2584.45Z" style="fill:rgb(70,51,41);"/>
                        </g>
                        <g transform="matrix(1.07027,0,0,0.896873,2395.15,4951.59)">
                            <ellipse cx="-284.399" cy="2535.84" rx="15.221" ry="20.875" style="fill:rgb(52,34,21);"/>
                        </g>
                        <g transform="matrix(1.07027,0,0,0.896873,2532.14,4951.59)">
                            <ellipse cx="-284.399" cy="2535.84" rx="15.221" ry="20.875" style="fill:rgb(52,34,21);"/>
                        </g>
                        <g transform="matrix(1,0,0,1,1558.5,1862.23)">
                            <path d="M482.265,5413.43C482.265,5413.43 515.93,5432.07 537.879,5444.23C550.023,5450.96 563.628,5454.61 577.507,5454.87C588.945,5455.09 600.758,5455.31 600.758,5455.31C600.758,5455.31 619.771,5454.87 633.012,5454.57C641.191,5454.38 649.165,5451.97 656.08,5447.59C676.714,5434.54 720.367,5406.92 720.367,5406.92L734.077,5405.07C734.077,5405.07 721.092,5466.49 714.368,5498.29C711.819,5510.35 704.427,5520.83 693.924,5527.28C668.567,5542.81 620.964,5570.31 601.75,5570.31C582.317,5570.31 532.427,5540.56 506.523,5524.24C496.236,5517.75 489.023,5507.36 486.537,5495.45C480.298,5465.58 468.652,5409.81 468.652,5409.81L482.265,5413.43Z" style="fill:rgb(70,51,41);"/>
                        </g>
                        <g transform="matrix(0.701137,0,0,0.701137,2311.59,5483.77)">
                            <path d="M-186.174,2638.21C-184.765,2638.41 -183.558,2639.32 -182.97,2640.62C-182.381,2641.91 -182.491,2643.42 -183.262,2644.62C-190.467,2655.66 -202.581,2662.93 -216.303,2662.93C-230.028,2662.93 -242.143,2655.66 -249.322,2644.59C-250.087,2643.41 -250.196,2641.91 -249.613,2640.63C-249.029,2639.34 -247.832,2638.44 -246.434,2638.23C-239.669,2637.21 -228.655,2635.59 -222.01,2634.61C-218.287,2634.06 -214.504,2634.06 -210.781,2634.61C-204.097,2635.58 -192.986,2637.21 -186.174,2638.21Z" style="fill:white;"/>
                        </g>
                        <g transform="matrix(1,0,0,1,1550.85,4706.06)">
                            <rect x="693.508" y="2920.25" width="96.824" height="19.516" style="fill:rgb(0,86,76);"/>
                        </g>
                        <g transform="matrix(1.45766,-0.532545,0.391857,1.07258,-721.727,1775.26)">
                            <ellipse cx="553.321" cy="5178.86" rx="24.493" ry="22.048" style="fill:rgb(70,51,41);"/>
                        </g>
                        <g transform="matrix(1,0,0,1,1524.14,1866.54)">
                            <ellipse cx="553.321" cy="5178.86" rx="24.493" ry="22.048" style="fill:rgb(70,51,41);"/>
                        </g>
                        <g transform="matrix(0.159639,-1.18565,1.64807,0.221901,-6349.81,6583.56)">
                            <ellipse cx="553.321" cy="5178.86" rx="24.493" ry="22.048" style="fill:rgb(70,51,41);"/>
                        </g>
                        <g transform="matrix(0.196578,-1.45999,0.865187,0.116492,-2277.33,7380.25)">
                            <ellipse cx="553.321" cy="5178.86" rx="24.493" ry="22.048" style="fill:rgb(70,51,41);"/>
                        </g>
                        <g transform="matrix(1,0,0,1,1461.11,1948.94)">
                            <ellipse cx="553.321" cy="5178.86" rx="24.493" ry="22.048" style="fill:rgb(70,51,41);"/>
                        </g>
                        <g transform="matrix(1.40183,0.557073,-0.3693,0.92931,3360.79,1911.91)">
                            <ellipse cx="553.321" cy="5178.86" rx="24.493" ry="22.048" style="fill:rgb(70,51,41);"/>
                        </g>
                        <g transform="matrix(1.36097,1.56715,-0.755028,0.655692,5425.18,2809.07)">
                            <ellipse cx="553.321" cy="5178.86" rx="24.493" ry="22.048" style="fill:rgb(70,51,41);"/>
                        </g>
                        <g transform="matrix(2.10882,0,0,1.41867,999,-311.789)">
                            <ellipse cx="553.321" cy="5178.86" rx="24.493" ry="22.048" style="fill:rgb(70,51,41);"/>
                        </g>
                        <g transform="matrix(0.994408,0.524354,-0.673853,1.27792,4988.69,158.681)">
                            <ellipse cx="553.321" cy="5178.86" rx="24.493" ry="22.048" style="fill:rgb(70,51,41);"/>
                        </g>
                        <g transform="matrix(1.00468,0.529772,-0.683413,1.29606,5003.29,92.7539)">
                            <ellipse cx="553.321" cy="5178.86" rx="24.493" ry="22.048" style="fill:rgb(70,51,41);"/>
                        </g>
                        <g transform="matrix(0.950713,-0.0834183,0.128069,1.45959,1110.46,-385.076)">
                            <ellipse cx="553.321" cy="5178.86" rx="24.493" ry="22.048" style="fill:rgb(70,51,41);"/>
                        </g>
                        <g transform="matrix(0.906506,0.00798015,-0.0209086,2.37511,1619.95,-5142.08)">
                            <ellipse cx="553.321" cy="5178.86" rx="24.493" ry="22.048" style="fill:rgb(70,51,41);"/>
                        </g>
                        <g transform="matrix(1,0,0,1,0,604.606)">
                            <path d="M2129.4,7102.93L2149.64,6950.62L2136.53,6932.19L2160.72,6912.64L2160.72,6912.63L2160.73,6912.64L2160.74,6912.63L2160.74,6912.64L2184.53,6932.93L2171.82,6950.62L2192.03,7102.66C2181.27,7103.76 2170.36,7104.33 2159.33,7104.33C2149.24,7104.33 2139.26,7103.86 2129.4,7102.93Z" style="fill:rgb(149,218,89);"/>
                        </g>
                        <g transform="matrix(1,0,0,1,-1136.21,-3536.46)">
                            <path d="M3227.28,10708C3257.67,10708 3282.35,10732.7 3282.35,10763.1C3282.35,10793.5 3257.67,10818.1 3227.28,10818.1C3196.89,10818.1 3172.21,10793.5 3172.21,10763.1C3172.21,10732.7 3196.89,10708 3227.28,10708ZM3227.28,10720C3203.51,10720 3184.21,10739.3 3184.21,10763.1C3184.21,10786.8 3203.51,10806.1 3227.28,10806.1C3251.05,10806.1 3270.35,10786.8 3270.35,10763.1C3270.35,10739.3 3251.05,10720 3227.28,10720Z"/>
                        </g>
                        <g transform="matrix(1,0,0,1,-1000.21,-3536.46)">
                            <path d="M3227.28,10708C3257.67,10708 3282.35,10732.7 3282.35,10763.1C3282.35,10793.5 3257.67,10818.1 3227.28,10818.1C3196.89,10818.1 3172.21,10793.5 3172.21,10763.1C3172.21,10732.7 3196.89,10708 3227.28,10708ZM3227.28,10720C3203.51,10720 3184.21,10739.3 3184.21,10763.1C3184.21,10786.8 3203.51,10806.1 3227.28,10806.1C3251.05,10806.1 3270.35,10786.8 3270.35,10763.1C3270.35,10739.3 3251.05,10720 3227.28,10720Z"/>
                        </g>
                        <g transform="matrix(1,0,0,1,-1132,-3536.46)">
                            <path d="M3273.16,10750.6C3273.16,10750.6 3277.28,10746.6 3291.33,10746.6C3301.65,10746.6 3310.4,10750.6 3310.4,10750.6" style="fill:none;stroke:black;stroke-width:12px;"/>
                        </g>
                    </g>
                </g>
                <g id="persona-7" transform="matrix(1.63111,0,0,2.03391,-15718.1,123.275)">
                    <g transform="matrix(7.92454,0,0,7.54029,-90437,-7735.66)">
                        <rect x="13299" y="1280" width="120" height="155.341" style="fill:rgb(47,34,28);fill-opacity:0;"/>
                    </g>
                    <g transform="matrix(1.48585,0,0,1.5204,14533.7,-4407.84)">
                        <g>
                            <g transform="matrix(1.00273,0,0,1.00273,21.6689,1914.1)">
                                <circle cx="577.586" cy="2689.05" r="315.465" style="fill:rgb(210,118,48);"/>
                            </g>
                            <g transform="matrix(1,0,0,1,0,26.787)">
                                <path d="M471.602,4534.07L741.482,4510.56L713.028,4701.79L494.103,4668.08L471.602,4534.07Z" style="fill:rgb(131,60,31);"/>
                            </g>
                            <g transform="matrix(1,0,0,1,0,1905.79)">
                                <path d="M331.494,2870.57C341.394,2850.57 353.737,2837.71 386.341,2820.46C428.614,2798.1 536.081,2746.14 536.081,2746.14L601.904,2740.4L602.042,2740.3L602.521,2740.35L603,2740.3L603.138,2740.4L668.961,2746.14C668.961,2746.14 776.428,2798.1 818.701,2820.46C849.636,2836.82 862.331,2849.24 872.007,2867.55C816.639,2959.48 715.864,3021.02 600.83,3021.02C487.054,3021.02 387.226,2960.82 331.494,2870.57Z" style="fill:rgb(101,72,140);"/>
                            </g>
                            <g transform="matrix(1,0,0,1,0,1905.79)">
                                <path d="M600.83,2740.49L603.005,2878.9L600.83,3021.02C487.054,3021.02 387.226,2960.82 331.494,2870.57C341.394,2850.57 353.737,2837.71 386.341,2820.46C428.614,2798.1 536.081,2746.14 536.081,2746.14L600.83,2740.49Z" style="fill:rgb(84,59,115);"/>
                            </g>
                            <g transform="matrix(1,0,0,1,0,1905.79)">
                                <path d="M534.239,2726.83L515.801,2755.98L537.283,2872.66L590.243,2828.7L534.239,2726.83Z" style="fill:white;"/>
                            </g>
                            <g transform="matrix(-1,0,0,1,1201.66,1905.79)">
                                <path d="M534.239,2726.83L515.801,2755.98L537.283,2872.66L590.243,2828.7L534.239,2726.83Z" style="fill:white;"/>
                            </g>
                            <g transform="matrix(1,0,0,1,0,1905.79)">
                                <path d="M535.092,2691.56L534.239,2726.83L590.243,2828.7L603,2878.87L611.418,2828.7L667.422,2726.83L667.422,2667.76L535.092,2691.56Z" style="fill:rgb(237,216,181);"/>
                            </g>
                            <g transform="matrix(1,0,0,1,0,1905.79)">
                                <path d="M600.83,2679.73L535.092,2691.56L534.239,2726.83L590.243,2828.7L600.83,2870.34L600.83,2679.73Z" style="fill:rgb(220,196,162);"/>
                            </g>
                            <g transform="matrix(1,0,0,1,0,1905.79)">
                                <path d="M667.422,2708.51L628.644,2736.07C611.99,2747.91 589.67,2747.91 573.017,2736.07L534.675,2708.82L535.092,2691.56L667.422,2667.76L667.422,2708.51Z" style="fill:rgb(188,158,131);"/>
                            </g>
                            <g transform="matrix(1.02034,0,0,1.02034,-12.2194,1857.21)">
                                <path d="M505.251,2674.24C493.948,2664.36 486.161,2651.07 483.063,2636.38C475.484,2600.45 459.694,2525.58 459.694,2525.58L483.898,2422.46C525.117,2391.22 563.745,2382.96 600.83,2388.37L721.104,2412.26L741.967,2525.58L714.634,2655.18C687.835,2680.64 656.649,2700.56 623.269,2719.58C609.405,2727.51 592.457,2727.84 578.297,2720.45C549.379,2705.45 524.242,2690.82 505.251,2674.24Z" style="fill:rgb(237,216,181);"/>
                            </g>
                            <g transform="matrix(1,0,0,1,0,1905.79)">
                                <path d="M600.83,2388.37C600.83,2388.37 600.837,2728.34 600.83,2732.25C591.087,2732.25 577.875,2728.77 569.549,2722.86C549.415,2708.55 487.578,2694.02 479.013,2633.58C473.466,2594.44 456.823,2528.37 456.823,2528.37L481.52,2423.16C523.577,2391.28 562.991,2382.85 600.83,2388.37Z" style="fill:rgb(220,196,162);"/>
                            </g>
                            <g transform="matrix(0.723725,-0.242485,0.216777,0.646997,-432.547,2908.26)">
                                <path d="M479.9,2532.97C490.436,2532.97 493.964,2561.29 500.186,2574.85C505.016,2585.37 513.811,2579.18 513.811,2593.88C513.811,2627.49 498.616,2654.78 479.9,2654.78C461.184,2654.78 445.989,2627.49 445.989,2593.88C445.989,2560.26 461.184,2532.97 479.9,2532.97Z" style="fill:rgb(220,196,162);"/>
                            </g>
                            <g transform="matrix(1,0,0,1,817.733,1905.79)">
                                <g transform="matrix(1.07027,0,0,0.896873,24.5834,269.336)">
                                    <ellipse cx="-284.399" cy="2535.84" rx="15.221" ry="20.875" style="fill:rgb(52,34,21);"/>
                                </g>
                                <g transform="matrix(1.07027,0,0,0.896873,150.234,269.336)">
                                    <ellipse cx="-284.399" cy="2535.84" rx="15.221" ry="20.875" style="fill:rgb(52,34,21);"/>
                                </g>
                                <g transform="matrix(0.613534,0,0,0.509215,-83.5938,1301.07)">
                                    <path d="M-180.261,2639.08C-186.671,2653.17 -200.408,2662.93 -216.303,2662.93C-232.199,2662.93 -245.935,2653.17 -252.345,2639.08L-180.261,2639.08Z" style="fill:white;"/>
                                </g>
                            </g>
                            <path d="M484.606,4545.26C472.963,4497.93 479.801,4442.52 485.525,4413.69C491.249,4384.86 468.19,4385.73 468.19,4385.73C413.665,4436.45 402.141,4463.66 420.519,4463.96C430.162,4464.12 468.818,4434.28 468.959,4445.29C469.401,4479.78 469.902,4519.41 470.078,4535.19C470.416,4565.62 496.249,4592.58 484.606,4545.26Z" style="fill:rgb(131,60,31);"/>
                            <path d="M452.811,4692.65C451.187,4671.61 438.651,4658.16 431.903,4649.87C420.828,4636.26 422.128,4615.54 422.128,4615.54C417.407,4608.4 419.494,4646.24 428.693,4675.3C432.784,4688.22 386.554,4711.66 383.371,4707.92C383.371,4707.92 412.261,4693.98 411.202,4677.9C410.143,4661.82 391.294,4628.05 391.454,4610.63C391.616,4592.99 400.937,4576.66 416.597,4564.99C432.731,4552.98 430.513,4525.54 426.258,4526.07C426.138,4527.74 422.457,4536.56 416.778,4541.55C406.629,4550.46 382.682,4554.9 382.26,4553.51C383.203,4555.02 401.406,4541.46 407.105,4531.05C413.577,4519.24 400.248,4472.97 395.623,4462.65C390.639,4451.54 403.626,4422.03 416.811,4411.14C428.936,4401.12 442.927,4321.34 452.076,4298.69C459.823,4279.5 476.153,4255.61 487.546,4249.72C498.939,4243.84 534.07,4239.15 534.07,4239.15C534.07,4239.15 569.403,4217.04 612.456,4220.24C666.031,4224.23 737.099,4270.25 746.972,4310.93C754.916,4343.67 778.015,4383.39 786.705,4403.46C793.585,4419.35 810.692,4455.3 803.211,4468.16C795.731,4481.02 790.38,4516.49 791.441,4527.69C792.51,4538.97 811.669,4551.95 818.126,4553.01C813.043,4553.38 797.891,4553.96 789.871,4548.54C780.139,4541.95 776.865,4533.81 776.865,4533.81C776.865,4533.81 777.314,4551.53 793.01,4566.37C808.705,4581.21 817.364,4608.22 810.709,4619.77C806.086,4627.8 799.808,4648.75 791.092,4666.1C783.262,4681.69 806.045,4707.26 813.04,4706.43C813.944,4708.98 787.201,4704.69 779.825,4691.72C777.394,4687.44 771.957,4680.53 770.857,4673.28C769.487,4664.24 772.948,4654.53 775.249,4647.09C779.396,4633.68 782.911,4630.26 781.66,4622.38C780.409,4614.5 772.481,4606.48 772.481,4606.48C772.481,4606.48 778.893,4634.11 767.718,4649.6C756.71,4664.85 756.189,4685.45 762.211,4686.33L768.223,4700.59C737.373,4685.23 703.482,4668.69 684.358,4659.4L673.491,4642.21C683.258,4619.28 697.394,4586.61 703.332,4575.44C712.832,4557.58 726.677,4513.4 719.467,4502.62C712.447,4492.14 706.263,4485.79 696.157,4464.61C685.012,4441.25 705.306,4410.74 709.529,4410.28C709.529,4410.28 704.521,4394.05 707.261,4388.01C709.043,4384.08 667.227,4373.99 636.475,4372.17C599.831,4370 542.914,4327.39 548.206,4320.77C532.008,4333.99 518.007,4359.11 496.467,4383.91C496.467,4383.91 502.672,4410.65 492.69,4426.82C482.709,4442.98 469.071,4454.07 469.071,4454.07C448.321,4451.69 447.314,4476.98 474.512,4507.52C491.926,4527.07 486.375,4560.98 492.181,4573.59C499.087,4588.59 514.604,4620.07 526.731,4644.49L515.801,4661.77L515.801,4661.77C499.786,4669.57 476.296,4681.04 452.811,4692.65ZM818.126,4553.01C818.892,4553.13 819.479,4553.09 819.836,4552.86C819.836,4552.86 819.21,4552.93 818.126,4553.01Z" style="fill:rgb(61,28,15);"/>
                            <path d="M722.609,4431.93C727.376,4429.75 732.25,4429.21 736.753,4430.72C750.298,4435.26 755.379,4456.6 748.093,4478.35C746.26,4483.82 743.819,4488.79 740.975,4493.11C739.302,4473.41 730.8,4454.98 722.609,4431.93Z" style="fill:rgb(237,216,181);"/>
                            <g transform="matrix(1,0,0,1,684.505,-6874.33)">
                                <g transform="matrix(0.857143,0,0,0.857143,-1631.04,2883.19)">
                                    <path d="M1797.5,9820L1797.5,9880.67C1797.5,9889.7 1790.62,9897.25 1781.63,9898.09L1681.63,9907.42C1676.72,9907.88 1671.86,9906.25 1668.22,9902.94C1664.58,9899.62 1662.5,9894.92 1662.5,9890L1662.5,9820C1662.5,9810.34 1670.34,9802.5 1680,9802.5L1780,9802.5C1789.66,9802.5 1797.5,9810.34 1797.5,9820ZM1780,9820L1680,9820L1680,9890L1780,9880.67L1780,9820Z"/>
                                </g>
                                <g transform="matrix(0.857143,0,0,0.857143,-1502.65,2883.19)">
                                    <path d="M1797.5,9820L1797.5,9890C1797.5,9894.92 1795.42,9899.62 1791.79,9902.94C1788.14,9906.25 1783.28,9907.88 1778.37,9907.42L1678.37,9898.09C1669.38,9897.25 1662.5,9889.7 1662.5,9880.67L1662.5,9820C1662.5,9810.34 1670.34,9802.5 1680,9802.5L1780,9802.5C1789.66,9802.5 1797.5,9810.34 1797.5,9820ZM1780,9820L1680,9820L1680,9880.67L1780,9890L1780,9820Z"/>
                                </g>
                                <g transform="matrix(1,0,0,1,-1878.18,1470.69)">
                                    <rect x="1785" y="9835" width="20.019" height="10"/>
                                </g>
                            </g>
                        </g>
                    </g>
                </g>
                <g id="persona-8" transform="matrix(1.63111,0,0,2.03391,-15207.9,123.275)">
                    <g transform="matrix(7.92454,0,0,7.54029,-88253.6,-7735.66)">
                        <rect x="13299" y="1280" width="120" height="155.341" style="fill:rgb(47,34,28);fill-opacity:0;"/>
                    </g>
                    <g transform="matrix(1.48585,0,0,1.5204,16393.4,-16852.8)">
                        <g transform="matrix(1.00273,0,0,1.00273,240.073,10097.3)">
                            <circle cx="577.586" cy="2689.05" r="315.465" style="fill:rgb(13,76,139);"/>
                        </g>
                        <g transform="matrix(1,0,0,1,218.404,10089)">
                            <path d="M331.494,2870.57C341.394,2850.57 353.737,2837.71 386.341,2820.46C428.614,2798.1 536.081,2746.14 536.081,2746.14L601.904,2740.4L602.042,2740.3L602.521,2740.35L603,2740.3L603.138,2740.4L668.961,2746.14C668.961,2746.14 776.428,2798.1 818.701,2820.46C849.636,2836.82 862.331,2849.24 872.007,2867.55C816.639,2959.48 715.864,3021.02 600.83,3021.02C487.054,3021.02 387.226,2960.82 331.494,2870.57Z" style="fill:rgb(31,155,222);"/>
                        </g>
                        <g transform="matrix(1,0,0,1,218.404,10089)">
                            <path d="M600.83,2740.49L603.005,2878.9L600.83,3021.02C487.054,3021.02 387.226,2960.82 331.494,2870.57C341.394,2850.57 353.737,2837.71 386.341,2820.46C428.614,2798.1 536.081,2746.14 536.081,2746.14L600.83,2740.49Z" style="fill:rgb(0,110,169);"/>
                        </g>
                        <g transform="matrix(1,0,0,1,218.404,10089)">
                            <path d="M535.092,2691.56L534.239,2726.83L590.243,2828.7L603,2878.87L611.418,2828.7L667.422,2726.83L667.422,2667.76L535.092,2691.56Z" style="fill:rgb(237,216,181);"/>
                        </g>
                        <g transform="matrix(1,0,0,1,218.404,10089)">
                            <path d="M600.83,2679.73L535.092,2691.56L534.239,2726.83L590.243,2828.7L600.83,2870.34L600.83,2679.73Z" style="fill:rgb(220,196,162);"/>
                        </g>
                        <g transform="matrix(1,0,0,1,218.404,10089)">
                            <path d="M534.239,2726.83L515.801,2755.98L536.957,2881.36L600.505,2829.02L534.239,2726.83Z" style="fill:white;"/>
                        </g>
                        <g transform="matrix(-1,0,0,1,1420.07,10089)">
                            <path d="M534.239,2726.83L515.801,2755.98L538.156,2883.02L601.156,2829.34L534.239,2726.83Z" style="fill:white;"/>
                        </g>
                        <g transform="matrix(1,0,0,1,-1341.8,6005.67)">
                            <path d="M2129.4,7102.93L2149.64,6950.62L2136.53,6932.19L2160.72,6912.64L2160.72,6912.63L2160.73,6912.64L2160.74,6912.63L2160.74,6912.64L2184.53,6932.93L2171.82,6950.62L2192.03,7102.66C2181.27,7103.76 2170.36,7104.33 2159.33,7104.33C2149.24,7104.33 2139.26,7103.86 2129.4,7102.93Z" style="fill:rgb(0,57,121);"/>
                        </g>
                        <g transform="matrix(1,0,0,1,2.61901,441.09)">
                            <path d="M882.917,12364.2C870.146,12373 855.586,12379.4 839.885,12382.7L826.415,12385.6C819.763,12387 812.888,12387 806.236,12385.6L780.129,12380C769.393,12377.7 759.304,12373.8 750.164,12368.3L750.587,12350.8L882.917,12327L882.917,12364.2Z" style="fill:rgb(188,158,131);"/>
                        </g>
                        <g transform="matrix(1.02034,0,0,1.02034,206.185,10040.4)">
                            <path d="M565.355,2718.62C529.364,2710.97 500.781,2683.65 491.526,2648.04C477.804,2595.25 459.694,2525.58 459.694,2525.58L483.898,2422.46C525.117,2391.22 563.745,2382.96 600.83,2388.37L721.104,2412.26L741.967,2525.58C741.967,2525.58 726.497,2585.09 713.32,2635.79C702.113,2678.91 667.501,2711.99 623.92,2721.24C618.912,2722.31 614.399,2723.27 610.719,2724.05C604.199,2725.43 597.462,2725.43 590.942,2724.05C584.408,2722.66 575.246,2720.72 565.355,2718.62Z" style="fill:rgb(237,216,181);"/>
                        </g>
                        <g transform="matrix(1,0,0,1,2.90934,449.303)">
                            <path d="M816.491,12371.7C813.054,12371.7 809.617,12371.4 806.236,12370.6L780.129,12365.1C743.406,12357.3 714.242,12329.4 704.798,12293.1L672.319,12168.1L697.015,12062.9C739.072,12031 778.486,12022.6 816.326,12028.1L816.491,12028.2L816.491,12371.7Z" style="fill:rgb(220,196,162);"/>
                        </g>
                        <g transform="matrix(-1.45766,-0.532545,-0.391857,1.07258,3698.58,7181.32)">
                            <ellipse cx="553.321" cy="5178.86" rx="24.493" ry="22.048" style="fill:rgb(108,108,108);"/>
                        </g>
                        <g transform="matrix(-0.237954,-1.7673,-0.865187,0.116492,5278.09,12963.9)">
                            <ellipse cx="553.321" cy="5178.86" rx="24.493" ry="22.048" style="fill:rgb(108,108,108);"/>
                        </g>
                        <g transform="matrix(-1,0,0,1,1452.72,7272.6)">
                            <ellipse cx="553.321" cy="5178.86" rx="24.493" ry="22.048" style="fill:rgb(108,108,108);"/>
                        </g>
                        <g transform="matrix(-0.159639,-1.18565,-1.64807,0.221901,9326.67,11989.6)">
                            <ellipse cx="553.321" cy="5178.86" rx="24.493" ry="22.048" style="fill:rgb(108,108,108);"/>
                        </g>
                        <g transform="matrix(-1,0,0,1,1515.75,7355)">
                            <ellipse cx="553.321" cy="5178.86" rx="24.493" ry="22.048" style="fill:rgb(108,108,108);"/>
                        </g>
                        <g transform="matrix(-1.40183,0.557073,0.52144,1.31216,-1168.5,5343.69)">
                            <ellipse cx="553.321" cy="5178.86" rx="24.493" ry="22.048" style="fill:rgb(108,108,108);"/>
                        </g>
                        <g transform="matrix(-1.36097,1.56715,0.755028,0.655692,-2448.32,8215.13)">
                            <ellipse cx="553.321" cy="5178.86" rx="24.493" ry="22.048" style="fill:rgb(108,108,108);"/>
                        </g>
                        <g transform="matrix(-2.10882,0,0,1.41867,1977.86,5094.27)">
                            <ellipse cx="553.321" cy="5178.86" rx="24.493" ry="22.048" style="fill:rgb(108,108,108);"/>
                        </g>
                        <g transform="matrix(-0.994408,0.524354,0.673853,1.27792,-2011.83,5564.74)">
                            <ellipse cx="553.321" cy="5178.86" rx="24.493" ry="22.048" style="fill:rgb(108,108,108);"/>
                        </g>
                        <g transform="matrix(0.723725,-0.242485,0.216777,0.646997,-214.142,11091.5)">
                            <ellipse cx="479.9" cy="2593.88" rx="33.911" ry="60.904" style="fill:rgb(220,196,162);"/>
                        </g>
                        <g transform="matrix(-1.00468,0.529772,0.683413,1.29606,-2026.44,5498.81)">
                            <ellipse cx="553.321" cy="5178.86" rx="24.493" ry="22.048" style="fill:rgb(108,108,108);"/>
                        </g>
                        <g transform="matrix(-0.906506,0.00798015,0.0209086,2.37511,1356.91,263.977)">
                            <ellipse cx="553.321" cy="5178.86" rx="24.493" ry="22.048" style="fill:rgb(108,108,108);"/>
                        </g>
                        <g transform="matrix(-1.12285,-0.0985225,-0.128069,1.45959,1965.86,5029.71)">
                            <ellipse cx="553.321" cy="5178.86" rx="24.493" ry="22.048" style="fill:rgb(108,108,108);"/>
                        </g>
                        <g transform="matrix(-0.723725,-0.242485,-0.216777,0.646997,1851.56,11091.5)">
                            <ellipse cx="479.9" cy="2593.88" rx="33.911" ry="60.904" style="fill:rgb(237,216,181);"/>
                        </g>
                        <g transform="matrix(-0.683424,-0.0599657,-0.213923,2.43806,2172.2,-17.2195)">
                            <ellipse cx="553.321" cy="5178.86" rx="24.493" ry="22.048" style="fill:rgb(108,108,108);"/>
                        </g>
                        <g transform="matrix(-0.680672,0.0857343,0.305851,2.42824,-266.432,-47.1829)">
                            <ellipse cx="553.321" cy="5178.86" rx="24.493" ry="22.048" style="fill:rgb(108,108,108);"/>
                        </g>
                        <g transform="matrix(1,0,0,1,1036.14,10089)">
                            <g transform="matrix(0.680985,-0.825669,0.691903,0.570659,-1846.35,856.073)">
                                <ellipse cx="-284.399" cy="2535.84" rx="15.221" ry="20.875" style="fill:rgb(52,34,21);"/>
                            </g>
                            <g transform="matrix(0.649369,0.850758,-0.712927,0.544165,1844.07,1400.03)">
                                <ellipse cx="-284.399" cy="2535.84" rx="15.221" ry="20.875" style="fill:rgb(52,34,21);"/>
                            </g>
                            <path d="M-180.261,2642.08C-186.671,2656.17 -200.408,2662.93 -216.303,2662.93C-232.199,2662.93 -245.935,2656.17 -252.345,2642.08L-216.902,2639.08L-180.261,2642.08Z" style="fill:white;"/>
                        </g>
                        <g transform="matrix(-0.978409,0,0,1,1403.53,10076.1)">
                            <path d="M468.652,2584.45C468.652,2584.45 456.425,2541.24 452.87,2505.65C448.578,2462.66 455.392,2435.57 464.856,2405.84C470.063,2389.47 518.06,2386.82 518.06,2386.82C518.06,2386.82 526.695,2384.68 578.841,2378.74C627.546,2373.18 630.339,2377.32 658.392,2384.34C692.665,2392.92 725.849,2391.57 735.808,2412.5C746.023,2433.96 755.666,2464.41 751.42,2508.28C747.174,2552.15 734.077,2579.39 734.077,2579.39C734.077,2579.39 723.331,2577.26 728.967,2559.46C734.25,2542.77 738.129,2521.72 733.337,2502.79C723.431,2463.65 716.048,2422.92 675.225,2428.28C644.393,2432.33 583.856,2446.86 567.573,2446.86C551.289,2446.86 515.177,2425.69 502.55,2440.47C475.778,2471.8 467.505,2502.04 470.027,2531.75C470.816,2541.05 472.522,2550.68 474.495,2559.52C478.826,2578.94 468.652,2584.45 468.652,2584.45Z" style="fill:rgb(108,108,108);"/>
                        </g>
                        <g transform="matrix(1,0,0,1,210.756,10107.1)">
                            <rect x="693.508" y="2920.25" width="96.824" height="19.516" style="fill:rgb(0,110,169);"/>
                        </g>
                        <g transform="matrix(1,0,0,1,2.90934,450)">
                            <g transform="matrix(1,0,0,0.652207,0,4374.33)">
                                <rect x="915.457" y="12540" width="10.347" height="37.379" style="fill:url(#_Linear1);"/>
                            </g>
                            <g transform="matrix(0.216353,0,0,0.88286,728.7,1481.94)">
                                <rect x="915.457" y="12540" width="10.347" height="37.379" style="fill:url(#_Linear2);"/>
                            </g>
                            <g transform="matrix(0.432706,0,0,0.0147807,528.4,12367.6)">
                                <rect x="915.457" y="12540" width="10.347" height="37.379" style="fill:url(#_Linear3);"/>
                            </g>
                            <g transform="matrix(0.601055,0,0,0.133767,367.281,10870.6)">
                                <rect x="915.457" y="12540" width="10.347" height="37.379" style="fill:rgb(10,60,110);"/>
                            </g>
                        </g>
                        <g transform="matrix(1,0,0,1,19.4692,450)">
                            <g transform="matrix(1,0,0,0.652207,0,4374.33)">
                                <rect x="915.457" y="12540" width="10.347" height="37.379" style="fill:url(#_Linear4);"/>
                            </g>
                            <g transform="matrix(0.216353,0,0,0.88286,728.7,1481.94)">
                                <rect x="915.457" y="12540" width="10.347" height="37.379" style="fill:url(#_Linear5);"/>
                            </g>
                            <g transform="matrix(0.432706,0,0,0.0147807,528.4,12367.6)">
                                <rect x="915.457" y="12540" width="10.347" height="37.379" style="fill:url(#_Linear6);"/>
                            </g>
                            <g transform="matrix(0.601055,0,0,0.133767,367.281,10870.6)">
                                <rect x="915.457" y="12540" width="10.347" height="37.379" style="fill:rgb(10,60,110);"/>
                            </g>
                        </g>
                    </g>
                </g>
                <g id="persona-9" transform="matrix(2.42358,0,0,3.09235,6207.95,-30133.7)">
                    <g transform="matrix(5.33333,0,0,4.95942,-67392.2,4696.54)">
                        <rect x="13299" y="1280" width="120" height="155.341" style="fill:rgb(47,34,28);fill-opacity:0;"/>
                    </g>
                    <g>
                        <g transform="matrix(1.00273,0,0,1.00273,3276.77,8799.08)">
                            <circle cx="577.586" cy="2689.05" r="315.465" style="fill:rgb(105,80,168);"/>
                        </g>
                        <g transform="matrix(1.6539,0,0,1.63449,1854.24,-954.948)">
                            <path d="M1250.69,7381.43C1277.34,7379.79 1292.13,7396.02 1304.67,7423.98C1318.08,7453.86 1326.22,7489.11 1326.22,7527.01C1326.22,7622.58 1275.96,7696.26 1210.28,7710.84C1144.61,7696.26 1094.35,7622.58 1094.35,7527.01C1094.35,7496.23 1100.81,7462.82 1112.48,7438.03C1139.03,7381.63 1218.16,7343.32 1250.69,7381.43Z"/>
                        </g>
                        <g transform="matrix(-0.723725,-0.242485,-0.216777,0.646997,4912.22,9776.24)">
                            <path d="M479.9,2532.97C490.436,2532.97 493.964,2561.29 500.186,2574.85C505.016,2585.37 513.811,2579.18 513.811,2593.88C513.811,2627.49 498.616,2654.78 479.9,2654.78C461.184,2654.78 445.989,2627.49 445.989,2593.88C445.989,2560.26 461.184,2532.97 479.9,2532.97Z" style="fill:rgb(237,216,181);"/>
                        </g>
                        <g transform="matrix(1,0,0,1,3255.1,8790.77)">
                            <path d="M331.494,2870.57C341.394,2850.57 353.737,2837.71 386.341,2820.46C428.614,2798.1 536.081,2746.14 536.081,2746.14L601.904,2740.4L602.042,2740.3L602.521,2740.35L603,2740.3L603.138,2740.4L667.366,2747.27C667.366,2747.27 776.428,2798.1 818.701,2820.46C849.636,2836.82 862.331,2849.24 872.007,2867.55C816.639,2959.48 715.864,3021.02 600.83,3021.02C487.054,3021.02 387.226,2960.82 331.494,2870.57Z" style="fill:rgb(86,62,62);"/>
                        </g>
                        <g transform="matrix(1,0,0,1,3255.1,8790.77)">
                            <path d="M600.83,2740.49L603.005,2878.9L600.83,3021.02C487.054,3021.02 387.226,2960.82 331.494,2870.57C341.394,2850.57 353.737,2837.71 386.341,2820.46C428.614,2798.1 536.081,2746.14 536.081,2746.14L600.83,2740.49Z" style="fill:rgb(68,49,49);"/>
                        </g>
                        <g id="path9" transform="matrix(0.75,0,0,0.75,908.936,2915)">
                            <clipPath id="_clip7">
                                <circle cx="3929.33" cy="11440.6" r="421.767"/>
                            </clipPath>
                            <g clip-path="url(#_clip7)">
                                <path d="M4011.62,11698.5L4011.63,11698.6C4014.04,11701.7 4014.7,11705.4 4014.69,11708.6C4014.69,11710.9 4014.34,11712.9 4014.07,11714.1C4014.07,11714.1 4013.05,11718.4 4013.05,11718.4C4009.55,11732.9 3998.89,11777 3995.23,11799.9C3995.23,11799.9 3995.22,11799.9 3995.21,11800C3995.09,11800.7 3992.07,11817.8 3991.85,11830.5L3991.84,11831.1C3991.83,11831.2 3991.81,11831.4 3991.77,11831.5L3976.95,11878.9C3976.75,11879.6 3976.15,11880 3975.47,11880L3886.62,11880C3885.94,11880 3885.34,11879.6 3885.14,11878.9L3866.13,11818.6C3866.09,11818.4 3866.06,11818.2 3866.06,11818.1C3866.06,11817.8 3866.15,11817.5 3866.31,11817.2C3866.31,11817.2 3877.84,11799.6 3878.25,11798.9C3878.31,11798.2 3879.72,11780.9 3879.76,11780.4C3877.86,11772.7 3868.61,11735.7 3858.55,11704.1C3858.55,11704.1 3858.53,11704 3858.53,11704C3858.34,11703.4 3857.41,11700.1 3857.41,11696.1C3857.41,11692.4 3858.21,11689.3 3859.78,11686.7C3861.7,11683.6 3864.74,11681.5 3868.57,11680.6C3870.08,11680.1 3873.9,11679.2 3878.32,11681.3C3883.51,11683.8 3887.4,11689.3 3889.87,11697.8C3890.39,11699.6 3901.23,11737 3908.16,11762.9C3908.51,11756.5 3908.88,11749.7 3908.88,11749.7C3908.88,11749.7 3908.88,11749.7 3908.88,11749.7C3909.07,11744.2 3910.83,11739.9 3914.11,11737C3918.45,11733 3923.65,11733.1 3924.6,11733.2C3929.65,11733.4 3933.75,11735.1 3936.77,11738.3C3938.19,11739.8 3939.29,11741.6 3940.08,11743.6C3942.39,11741.5 3945.96,11739.6 3951.4,11739.4C3951.4,11739.4 3951.46,11739.4 3951.51,11739.4L3951.57,11739.4C3952.28,11739.4 3958.65,11739.5 3963.18,11744.1C3965.91,11746.8 3967.35,11750.5 3967.35,11754.9L3967.35,11755C3967.35,11755 3967.35,11755.1 3967.35,11755.1C3967.35,11755.1 3966.96,11760.6 3966.66,11765C3971.13,11745.9 3976.89,11722.8 3981.89,11707.5C3983.28,11701.9 3988.62,11692.8 3999.97,11693.2C4006.33,11693.4 4009.82,11696.2 4011.62,11698.5ZM3936.04,11750.7C3936.04,11750.7 3936.39,11739 3924.31,11738.6C3924.31,11738.6 3914.65,11737.9 3914.3,11750L3912.58,11781.8L3933.45,11781.7L3936.04,11750.7L3936.04,11750.7ZM3936.73,11810.7C3940.87,11817.3 3946.74,11815.9 3946.74,11815.9C3958.12,11815.2 3958.81,11799.4 3958.81,11799.4L3961.92,11754.8C3961.92,11744.8 3951.57,11744.8 3951.57,11744.8C3940.53,11745.2 3940.53,11754.5 3940.53,11754.5L3938.46,11785.6C3951.24,11797.6 3936.75,11810.7 3936.75,11810.7L3936.73,11810.7ZM3884.29,11791.8L3890.5,11781.7L3907.39,11781.9C3902.63,11761.4 3884.65,11699.3 3884.65,11699.3C3879.55,11681.8 3870.14,11685.9 3870.14,11685.9C3859.36,11687.8 3863.73,11702.4 3863.73,11702.4C3874.02,11734.8 3883.26,11771.9 3885.24,11780L3884.29,11791.8ZM3999.87,11697.9C3990.49,11697.1 3987.09,11709.1 3987.09,11709.1C3977.37,11738.7 3964.68,11798.6 3964.62,11798.9C3960.71,11822.8 3946.39,11821.1 3946.39,11821.1C3938.46,11821.4 3933.63,11814.9 3933.63,11814.9L3931.56,11817C3946.74,11827.3 3946.62,11848 3946.39,11849.4C3946.05,11851.5 3943.68,11851.4 3943.68,11851.4C3941.26,11851.1 3940.87,11849.4 3940.87,11849.4C3938.11,11809 3901.54,11814.2 3901.54,11814.2C3897.1,11812.2 3900.51,11808.7 3900.51,11808.7C3916.03,11805.9 3927.42,11812.8 3927.42,11812.8C3950.88,11793.8 3929.49,11785.9 3929.49,11785.9L3893.26,11785.9L3871.87,11818.7L3889.46,11874.6L3972.61,11874.6L3986.41,11830.4C3986.65,11817 3989.86,11799 3989.86,11799C3994.16,11772.2 4008.07,11716 4008.77,11712.9C4009.47,11709.8 4011.25,11698.9 3999.87,11697.9L3999.87,11697.9Z" style="fill:rgb(146,105,105);fill-rule:nonzero;"/>
                            </g>
                        </g>
                        <g transform="matrix(1,0,0,1,3255.1,8790.77)">
                            <path d="M535.092,2691.56L533.744,2747.27C553.301,2784.96 571.941,2812.93 589.499,2829.44C598.085,2834.53 605.432,2834.45 611.418,2828.7C632.649,2809.16 657.814,2779.59 667.422,2747.3L667.422,2667.76L535.092,2691.56Z" style="fill:rgb(237,216,181);"/>
                        </g>
                        <g transform="matrix(1,0,0,1,3255.1,8790.77)">
                            <path d="M600.83,2679.73L535.092,2691.56L533.746,2747.27C556.136,2794.38 588.015,2837.21 600.83,2833.14L600.83,2679.73Z" style="fill:rgb(220,196,162);"/>
                        </g>
                        <g transform="matrix(1,0,0,1,3255.1,8790.77)">
                            <path d="M667.422,2708.51L628.644,2736.07C611.99,2747.91 589.67,2747.91 573.017,2736.07L534.675,2708.82L535.092,2691.56L667.422,2667.76L667.422,2708.51Z" style="fill:rgb(188,158,131);"/>
                        </g>
                        <g transform="matrix(1.02034,0,0,1.02034,3242.89,8742.2)">
                            <path d="M473.37,2581.34L459.694,2525.58L483.898,2422.46C525.117,2391.22 563.745,2340.02 600.83,2345.43L679.875,2358.07L721.104,2412.26L741.967,2525.58L737.574,2583.62C711.205,2654.62 664.577,2693.35 625.635,2717.67C610.158,2727.39 590.445,2727.22 575.139,2717.23C537.065,2692.52 504.645,2655.17 473.37,2581.34Z" style="fill:rgb(237,216,181);"/>
                        </g>
                        <g transform="matrix(1,0,0,1,3255.1,3850.72)">
                            <path d="M498.775,7349.07C534.418,7327.01 568.209,7321.4 600.83,7326.16C600.83,7326.16 600.837,7666.14 600.83,7670.04C600.552,7670.62 600.267,7671.18 599.973,7671.74C591.133,7671.6 582.327,7669.01 574.617,7663.99C535.768,7638.77 502.689,7600.66 470.778,7525.33L456.823,7468.43L481.52,7363.22C487.319,7358.82 493.069,7354.04 498.775,7349.07Z" style="fill:rgb(220,196,162);"/>
                        </g>
                        <g transform="matrix(0.723725,-0.242485,0.216777,0.646997,2799.88,9776.24)">
                            <path d="M479.9,2532.97C490.436,2532.97 493.964,2561.29 500.186,2574.85C505.016,2585.37 513.811,2579.18 513.811,2593.88C513.811,2627.49 498.616,2654.78 479.9,2654.78C461.184,2654.78 445.989,2627.49 445.989,2593.88C445.989,2560.26 461.184,2532.97 479.9,2532.97Z" style="fill:rgb(220,196,162);"/>
                        </g>
                        <g transform="matrix(1,0,0,1,4072.84,8790.77)">
                            <g transform="matrix(1.07027,0,0,0.896873,24.5834,269.336)">
                                <ellipse cx="-284.399" cy="2535.84" rx="15.221" ry="20.875"/>
                            </g>
                            <g transform="matrix(1.07027,0,0,0.896873,150.234,269.336)">
                                <ellipse cx="-284.399" cy="2535.84" rx="15.221" ry="20.875"/>
                            </g>
                            <g transform="matrix(0.613534,0,0,0.509215,-83.5938,1301.07)">
                                <path d="M-180.261,2639.08C-186.671,2653.17 -200.408,2662.93 -216.303,2662.93C-232.199,2662.93 -245.935,2653.17 -252.345,2639.08L-180.261,2639.08Z" style="fill:white;"/>
                            </g>
                        </g>
                        <g transform="matrix(1.6539,0,0,1.6539,1854.24,-1104.61)">
                            <path d="M1230.69,7409.27C1230.69,7409.27 1192.9,7439.77 1178.74,7457.71C1163.34,7477.24 1110.15,7524.45 1109.32,7521.32L1108.74,7487.49L1169.68,7400.71L1255.54,7393.51L1310.68,7474.94L1304.73,7519.59C1289.42,7497.06 1276.34,7470.85 1271.06,7431.77C1261.74,7443.46 1242.66,7472.75 1201.3,7494.74C1174.32,7509.09 1148.15,7518.84 1139.48,7514.13C1139.48,7514.13 1169.12,7489 1190.37,7465.24C1211.62,7441.48 1230.69,7409.27 1230.69,7409.27Z"/>
                        </g>
                    </g>
                </g>
                <g transform="matrix(2.42358,0,0,3.09235,-11246.2,500.424)">
                    <g transform="matrix(144,0,0,144,8699.26,187.998)">
                    </g>
                    <text x="8207.07px" y="187.998px" style="font-family:'BarlowCondensed-Regular', 'Barlow Condensed';font-stretch:condensed;font-size:144px;">KonstrFile</text>
                </g>
            </g>
        </g>
    </g>
    <defs>
        <linearGradient id="_Linear1" x1="0" y1="0" x2="1" y2="0" gradientUnits="userSpaceOnUse" gradientTransform="matrix(6.2191,0,0,9.53547,917.521,12535.4)"><stop offset="0" style="stop-color:rgb(13,76,139);stop-opacity:1"/><stop offset="1" style="stop-color:rgb(0,35,71);stop-opacity:1"/></linearGradient>
        <linearGradient id="_Linear2" x1="0" y1="0" x2="1" y2="0" gradientUnits="userSpaceOnUse" gradientTransform="matrix(6.2191,0,0,9.53547,917.521,12535.4)"><stop offset="0" style="stop-color:rgb(13,76,139);stop-opacity:1"/><stop offset="1" style="stop-color:rgb(0,35,71);stop-opacity:1"/></linearGradient>
        <linearGradient id="_Linear3" x1="0" y1="0" x2="1" y2="0" gradientUnits="userSpaceOnUse" gradientTransform="matrix(6.2191,0,0,9.53547,917.521,12535.4)"><stop offset="0" style="stop-color:rgb(13,76,139);stop-opacity:1"/><stop offset="1" style="stop-color:rgb(0,35,71);stop-opacity:1"/></linearGradient>
        <linearGradient id="_Linear4" x1="0" y1="0" x2="1" y2="0" gradientUnits="userSpaceOnUse" gradientTransform="matrix(6.2191,0,0,9.53547,917.521,12535.4)"><stop offset="0" style="stop-color:rgb(13,76,139);stop-opacity:1"/><stop offset="1" style="stop-color:rgb(0,35,71);stop-opacity:1"/></linearGradient>
        <linearGradient id="_Linear5" x1="0" y1="0" x2="1" y2="0" gradientUnits="userSpaceOnUse" gradientTransform="matrix(6.2191,0,0,9.53547,917.521,12535.4)"><stop offset="0" style="stop-color:rgb(13,76,139);stop-opacity:1"/><stop offset="1" style="stop-color:rgb(0,35,71);stop-opacity:1"/></linearGradient>
        <linearGradient id="_Linear6" x1="0" y1="0" x2="1" y2="0" gradientUnits="userSpaceOnUse" gradientTransform="matrix(6.2191,0,0,9.53547,917.521,12535.4)"><stop offset="0" style="stop-color:rgb(13,76,139);stop-opacity:1"/><stop offset="1" style="stop-color:rgb(0,35,71);stop-opacity:1"/></linearGradient>
    </defs>
</svg>
